<?xml version="1.0" encoding="UTF-8"?>
<svg width="251px" height="294px" viewBox="0 0 251 294" version="1.1" xmlns="http://www.w3.org/2000/svg" xmlns:xlink="http://www.w3.org/1999/xlink">
    <title>403</title>
    <g id="页面-1" stroke="none" stroke-width="1" fill="none" fill-rule="evenodd">
        <g id="403" transform="translate(-0.000000, -0.000000)">
            <path d="M0,129.023 L0,126.939 C0,58.364 55.591,2.774 124.165,2.774 L126.25,2.774 C194.824,2.774 250.415,58.364 250.415,126.939 L250.415,129.023 C250.415,197.598 194.825,253.189 126.25,253.189 L124.165,253.189 C55.591,253.189 0,197.598 0,129.023" id="路径" fill="#E4EBF7" fill-rule="nonzero"></path>
            <path d="M41.417,132.92 C41.1222559,135.846005 39.2888959,138.392501 36.607529,139.600248 C33.9261622,140.807995 30.8041518,140.493507 28.417529,138.775248 C26.0309063,137.05699 24.7422559,134.196005 25.037,131.27 C25.4926349,126.746788 29.5287879,123.449365 34.052,123.905 C38.5752121,124.360635 41.8726349,128.396788 41.417,132.92" id="路径" fill="#FFFFFF" fill-rule="nonzero"></path>
            <path d="M38.652,136.36 L49.077,142.27 M49.989,148.505 L37.409,159.235" id="形状" stroke="#FFFFFF" stroke-width="2"></path>
            <path d="M41.536,161.28 C41.334145,163.283545 40.0787445,165.027209 38.2426957,165.854171 C36.4066469,166.681132 34.2688893,166.465755 32.6346956,165.289171 C31.0005019,164.112586 30.1181449,162.153545 30.32,160.15 C30.632041,157.052787 33.3957872,154.794959 36.493,155.107 C39.5902128,155.419041 41.8480408,158.182787 41.536,161.28 M59.154,145.261 C58.9507159,147.279015 57.6862757,149.035286 55.8369816,149.868245 C53.9876875,150.701203 51.8344914,150.484301 50.1884815,149.299245 C48.5424715,148.114188 47.6537158,146.141015 47.857,144.123 C48.1712501,141.00342 50.9549197,138.72925 54.0745,139.0435 C57.1940803,139.35775 59.4682499,142.14142 59.154,145.261 M100.36,29.5160007 L130.02,29.503 C132.540075,29.5018954 134.582105,27.4580753 134.581,24.938 C134.579895,22.4179247 132.536075,20.3758954 130.016,20.3769996 L100.356,20.39 C97.8359247,20.3913808 95.7941194,22.4354247 95.7954994,24.9555 C95.7968808,27.4755753 97.8409247,29.5173807 100.361,29.5160007 M111.705,47.7540007 L141.364,47.741 C143.884075,47.7398954 145.926105,45.6960753 145.925,43.176 C145.923895,40.6559247 143.880075,38.6138954 141.36,38.6149996 L111.7,38.628 C110.069797,38.6288931 108.563904,39.4994213 107.749576,40.911665 C106.935248,42.3239087 106.936201,44.0633145 107.752076,45.4746651 C108.567951,46.8860156 110.074797,47.7548932 111.705,47.7540007" id="形状" fill="#FFFFFF" fill-rule="nonzero"></path>
            <path d="M114.066,29.503 L114.066,29.5 L129.764,29.493 C127.243925,29.4941046 125.201895,31.5379247 125.203,34.058 C125.204105,36.5780753 127.247925,38.6201046 129.768,38.619 L114.07,38.626 L114.07,38.624 C116.551741,38.5709512 118.535595,36.5433493 118.534506,34.0610414 C118.533418,31.5787335 116.547787,29.5528723 114.066,29.502 M185.405,137.723 C184.855,143.178 179.987,147.155 174.532,146.605 C169.076,146.055 165.1,141.187 165.65,135.732 C166.2,130.277 171.068,126.3 176.523,126.85 C181.978,127.4 185.955,132.268 185.405,137.723" id="形状" fill="#FFFFFF" fill-rule="nonzero"></path>
            <path d="M180.17,143.772 L192.742,150.901 M193.841,158.42 L178.67,171.36" id="形状" stroke="#FFFFFF" stroke-width="2"></path>
            <path d="M185.55,171.926 C185.173618,175.661654 181.840154,178.384882 178.1045,178.0085 C174.368846,177.632118 171.645618,174.298654 172.022,170.563 C172.428075,166.853579 175.748372,164.164911 179.461154,164.539016 C183.173936,164.913121 185.891107,168.210133 185.549,171.926 M204.12,155.285 C203.87438,157.719229 202.348772,159.837513 200.117858,160.841914 C197.886943,161.846316 195.289652,161.584242 193.304357,160.154414 C191.319063,158.724586 190.24738,156.344229 190.493,153.91 C190.910159,150.180084 194.251901,147.480928 197.986109,147.857747 C201.720316,148.234566 204.455435,151.546938 204.119,155.285" id="形状" fill="#FFFFFF" fill-rule="nonzero"></path>
            <path d="M152.988,194.074 C152.988,195.294549 151.998549,196.284 150.778,196.284 C149.557451,196.284 148.568,195.294549 148.568,194.074 C148.568,192.853451 149.557451,191.864 150.778,191.864 C151.998549,191.864 152.988,192.853451 152.988,194.074 Z M225.931,118.217 C225.931,119.437825 224.941325,120.4275 223.7205,120.4275 C222.499675,120.4275 221.51,119.437825 221.51,118.217 C221.51,116.996175 222.499675,116.0065 223.7205,116.0065 C224.941325,116.0065 225.931,116.996175 225.931,118.217 L225.931,118.217 Z M217.09,153.051 C217.09,154.271825 216.100325,155.2615 214.8795,155.2615 C213.658675,155.2615 212.669,154.271825 212.669,153.051 C212.669,151.830451 213.658451,150.841 214.879,150.841 C216.099549,150.841 217.089,151.830451 217.089,153.051 L217.09,153.051 Z M177.84,109.842 C177.84,111.063102 176.850102,112.053 175.629,112.053 C174.407898,112.053 173.418,111.063102 173.418,109.842 C173.418,108.621175 174.407675,107.6315 175.6285,107.6315 C176.849325,107.6315 177.839,108.621175 177.839,109.842 L177.84,109.842 Z M196.114,94.454 C196.114,95.6748254 195.124325,96.6645 193.9035,96.6645 C192.682675,96.6645 191.693,95.6748254 191.693,94.454 C191.693,93.2331746 192.682675,92.2435 193.9035,92.2435 C195.124325,92.2435 196.114,93.2331746 196.114,94.454 Z M202.844,182.523 C202.844,183.312557 202.422776,184.042138 201.739,184.436916 C201.055224,184.831695 200.212776,184.831695 199.529,184.436916 C198.845224,184.042138 198.424,183.312557 198.424,182.523 C198.424,181.302451 199.413451,180.313 200.634,180.313 C201.854549,180.313 202.844,181.302451 202.844,182.523 L202.844,182.523 Z" id="形状" stroke="#FFFFFF" stroke-width="2"></path>
            <path d="M215.125,155.262 L213.223,175.337 L202.353,181.295 M174.601,176.636 L168.279,186.397 L156.98,186.397 L152.496,192.846 M175.874,127.28 L175.874,111.56 M221.51,119.404 L208.74,127.263 L193.512,119.403 L193.512,96.668" id="形状" stroke="#FFFFFF" stroke-width="2"></path>
            <path d="M180.68,29.32 C180.68,13.128 193.806,0 210,0 C226.193,0 239.32,13.127 239.32,29.32 C239.32,45.514 226.193,58.642 210,58.642 C193.807,58.642 180.68,45.514 180.68,29.321" id="路径" fill="#A26EF4" fill-rule="nonzero"></path>
            <path d="M221.45,41.7060289 L199.887,41.581 C199.42446,41.5783554 198.981916,41.392072 198.656726,41.0631315 C198.331537,40.734191 198.15034,40.2895398 198.152971,39.827 L198.224,27.597 C198.226645,27.1344601 198.412928,26.691916 198.741868,26.3667263 C199.070809,26.0415365 199.51546,25.8603402 199.978,25.8629711 L221.54,25.988 C222.504,25.994 223.28,26.779 223.275024,27.743 L223.204,39.972 C223.201355,40.4345399 223.015072,40.877084 222.686132,41.2022737 C222.357191,41.5274635 221.91254,41.7086598 221.45,41.7060289" id="路径" fill="#FFFFFF" fill-rule="nonzero"></path>
            <path d="M215.106,29.192 C215.091,31.769 213.057,33.846 210.563,33.8320704 C208.069,33.818 206.059,31.717 206.073917,29.139 L206.114,22.214 C206.13,19.637 208.164,17.56 210.657,17.5739296 C213.151,17.589 215.161,19.69 215.147073,22.267 L215.107,29.192 L215.106,29.192 Z M210.576,15.1178864 C206.778301,15.0963987 203.682028,18.1573036 203.66,21.955 L203.616881,29.323 C203.594909,33.1210622 206.655938,36.2179086 210.454,36.2401188 C214.252062,36.2620914 217.348909,33.2010622 217.371,29.403 L217.413114,22.035 C217.434602,18.2371371 214.373857,15.1405781 210.576,15.1178864 Z M167.566,68.367 L163.636,68.367 C161.033837,68.359858 158.926142,66.2521631 158.919,63.65 C158.926142,61.0478369 161.033837,58.940142 163.636,58.933 L167.566,58.933 C170.168163,58.940142 172.275858,61.0478369 172.283,63.65 C172.275858,66.2521631 170.168163,68.359858 167.566,68.367" id="形状" fill="#FFFFFF" fill-rule="nonzero"></path>
            <path d="M168.214,248.838 C164.563236,248.838 161.604,245.877764 161.604,242.227 L161.604,176.119 C161.648514,172.499832 164.595058,169.589307 168.2145,169.589307 C171.833942,169.589307 174.780486,172.499832 174.825,176.119 L174.825,242.227 C174.824448,245.877373 171.865373,248.836448 168.215,248.837" id="路径" fill="#5BA02E" fill-rule="nonzero"></path>
            <path d="M176.147,248.176 C172.496627,248.175448 169.537552,245.216373 169.537,241.566 L169.537,208.512 C169.507714,206.130921 170.761224,203.918073 172.818556,202.718999 C174.875889,201.519925 177.419111,201.519925 179.476444,202.718999 C181.533776,203.918073 182.787286,206.130921 182.758,208.512 L182.758,241.565 C182.758,245.215764 179.798764,248.175448 176.148,248.176" id="路径" fill="#92C110" fill-rule="nonzero"></path>
            <path d="M185.994,293.89 L158.618,293.89 C156.867257,293.89 155.448,292.470743 155.448,290.72 L155.448,244.833 C155.448,243.082257 156.867257,241.663 158.618,241.663 L185.994,241.663 C187.744743,241.663 189.164,243.082257 189.164,244.833 L189.164,290.719 C189.164,291.559736 188.830019,292.366038 188.235528,292.960528 C187.641038,293.555019 186.834736,293.889 185.994,293.889" id="路径" fill="#F2D7AD" fill-rule="nonzero"></path>
            <path d="M81.972,147.673 C81.972,147.673 88.349,146.746 99.538,146.393 C111.267,146.022 117.108,147.479 117.108,147.479 C117.108,147.479 120.805,143.624 118.076,139.055 C119.354,126.978 124.058,106.228 118.411,90.782 C117.295,89.443 114.668,89.27 110.875,90.162 C109.538,90.477 103.728,90.013 102.892,90.062 L87.581,89.715 C87.581,89.715 84.094,89.545 79.546,89.207 C78.034,89.094 75.319,87.524 74.088,88.869 C73.682,89.312 71.663,94.538 72.118,104.946 L80.753,140.588 C80.753,140.588 77.612,144.198 81.972,147.673" id="路径" fill="#FFFFFF" fill-rule="nonzero"></path>
            <path d="M75.768,73.325 L74.868,66.928 L86.85,60.408 C86.85,60.408 94.152,60.29 94.888,61.613 C95.625,62.937 89.272,62.606 89.272,62.606 C89.272,62.606 87.436,63.994 86.657,65.106 C85.003,67.469 85.671,71.577 78.339,71.092 C76.631,71.376 75.769,73.325 75.769,73.325" id="路径" fill="#FFC6A0" fill-rule="nonzero"></path>
            <path d="M52.44,77.672 C52.44,77.672 66.657,87.078 77.413,92.116 C78.474,92.613 75.319,108.299 65.521,103.927 C58.085,100.609 45.359,95.487 44.039,89.431 C43.329,86.173 46.582,81.788 52.44,77.671 M141.862,80.113 C141.862,80.113 135.169,83.112 128.018,86.989 C124.124,89.099 117.881,91.693 115.688,94.977 C109.464,104.291 119.224,106.197 128.635,102.48 C135.345,99.829 157.634,90.353 141.862,80.113" id="形状" fill="#FFB594" fill-rule="nonzero"></path>
            <path d="M76.166,66.36 L79.226,70.241 C79.226,70.241 76.443,72.911 72.916,75.988 C65.813,82.183 60.113,90.284 56.921,92.428 C52.955,95.09 47.167,95.742 44.744,92.31 C41.191,87.278 45.208,77.682 76.166,66.36" id="路径" fill="#FFC6A0" fill-rule="nonzero"></path>
            <path d="M64.674,85.116 C64.674,85.116 62.334,93.529 55.762,99.563 C56.414,100.111 74.348,110.073 77.906,109.619 C83.144,108.95 84.323,90.651 79.051,89.088 C78.349,88.88 73.15,87.802 70.198,86.921 C69.328,86.661 68.587,85.211 66.653,85.985 L64.673,85.116 L64.674,85.116 Z M128.362,85.826 C128.362,85.826 133.68,87.782 135.687,99.56 C135.141,99.834 118.137,111.91 113.858,107.365 C107.324,100.425 113.092,89.972 118.133,88.755 C122.779,87.634 123.163,87.385 128.363,85.826" id="形状" fill="#FFFFFF" fill-rule="nonzero"></path>
            <path d="M78.18,94.656 C78.18,94.656 79.091,102.066 73.266,107.734" id="路径" stroke="#E4EBF7" stroke-width="1.051" stroke-linecap="round" stroke-linejoin="round"></path>
            <path d="M87.397,94.68 C87.397,94.68 90.521,97.252 97.66,97.252 C104.8,97.252 106.734,93.815 106.734,93.815" id="路径" stroke="#E4EBF7" stroke-width="0.932" stroke-linecap="round" stroke-linejoin="round"></path>
            <path d="M117.184,68.639 L110.403,62.462 C110.403,62.462 105.048,58.148 101.18,61.569 C97.313,64.991 105.643,63.652 106.833,65.734 C108.023,67.816 107.681,66.877 104.75,66.18 C99.147,64.849 102.668,67.073 107.725,71.535 C109.816,73.38 114.717,72.49 114.717,72.49 L117.184,68.639 Z" id="路径" fill="#FFC6A0" fill-rule="nonzero"></path>
            <path d="M105.282,91.315 L104.985,80.378 L89.067,80.351 L88.537,90.801 C88.511,91.204 88.707,91.589 89.052,91.8 C91.101,93.051 98.439,96.893 104.851,92.224 C105.138,92.014 105.294,91.67 105.282,91.314" id="路径" fill="#FFB594" fill-rule="nonzero"></path>
            <path d="M107.573,74.24 C108.39,73.093 108.555,65.122 108.588072,62.312 C108.594392,61.7610648 108.172321,61.299629 107.623,61.257 L103.003,60.892 C95.293,59.848 85.932,61.516 84.75,67.238 C79.268,73.051 84.329,80.482 84.329,80.482 C84.329,80.482 86.292,84.048 88.634,87.273 C89.39,88.314 89.032,83.542 91.674,81.344 C97.198,76.75 107.573,74.241 107.573,74.241" id="路径" fill="#5C2552" fill-rule="nonzero"></path>
            <path d="M88.426,83.206 C88.426,83.206 91.111,89.408 100.028,89.728 C107.848,90.008 109.001,82.72 107.462,72.223 L106.553,66.74 C100.435,63.843 91.075,67.28 91.075,67.28 C91.075,67.28 90.499,69.324 90.885,72.784 C88.609,74.85 89.061,78.402 89.061,78.402 C89.061,78.402 88.156,76.48 87.081,76.081 C86.221,75.761 85.184,76.17 84.759,78.061 C83.719,82.693 88.426,83.206 88.426,83.206" id="路径" fill="#FFC6A0" fill-rule="nonzero"></path>
            <polyline id="路径" stroke="#DB836E" stroke-width="1.145" stroke-linecap="round" stroke-linejoin="round" points="100.843 77.099 102.544 76.171 101.529 71.847 102.203 70.441"></polyline>
            <path d="M105.546,74.092 C105.524,74.805 105.094,75.371 104.586,75.355 C104.076,75.339 103.682,74.748 103.704,74.035 C103.725,73.322 104.156,72.757 104.664,72.772 C105.174,72.788 105.568,73.379 105.546,74.092 M97.592,74.349 C97.57,75.062 97.14,75.627 96.631,75.612 C96.122,75.596 95.727,75.005 95.749,74.292 C95.771,73.579 96.201,73.013 96.71,73.029 C97.22,73.045 97.614,73.635 97.592,74.349" id="形状" fill="#552950" fill-rule="nonzero"></path>
            <path d="M91.132,86.786 C91.132,86.786 96.401,91.743 103.811,89.113" id="路径" stroke="#DB836E" stroke-width="1.145" stroke-linecap="round" stroke-linejoin="round"></path>
            <path d="M99.776,81.903 C99.776,81.903 96.184,82.135 98.336,79.113 C99.926,77.617 103.233,78.653 103.233,78.653 C103.233,78.653 104.389,82.559 99.776,81.903" id="路径" fill="#DB836E" fill-rule="nonzero"></path>
            <path d="M102.88,70.6 C102.88,70.6 105.363,71.44 106.282,71.315 M93.883,71.975 C93.883,71.975 96.375,70.831 98.661,70.902" id="形状" stroke="#5C2552" stroke-width="1.526" stroke-linecap="round" stroke-linejoin="round"></path>
            <path d="M86.32,77.374 C86.32,77.374 87.281,78.253 87.778,79.48 C87.401,79.96 86.745,80.632 87.542,81.289 M99.337,83.719 C99.337,83.719 101.248,83.87 101.846,83.465" id="形状" stroke="#DB836E" stroke-width="1.145" stroke-linecap="round" stroke-linejoin="round"></path>
            <path d="M87.782,115.821 L103.512,112.809 M100.165,115.821 L110.205,113.813" id="形状" stroke="#E4EBF7" stroke-width="1.051" stroke-linecap="round" stroke-linejoin="round"></path>
            <path d="M66.508,86.763 C66.508,86.763 64.91,95.593 59.811,100.841" id="路径" stroke="#E4EBF7" stroke-width="1.114" stroke-linecap="round" stroke-linejoin="round"></path>
            <path d="M128.31,87.934 C128.31,87.934 131.323,92.055 132.37,99.719" id="路径" stroke="#E4EBF7" stroke-width="1.051" stroke-linecap="round" stroke-linejoin="round"></path>
            <path d="M64.09,84.816 C64.09,84.816 58.06,94.728 50.483,94.7190061" id="路径" stroke="#DB836E" stroke-width="0.795" stroke-linecap="round" stroke-linejoin="round"></path>
            <path d="M112.366,65.909 L112.224,71.229 C112.224,71.229 118.217,75.701 124.169,80.431 C128.651,83.993 133.057,87.886 135.154,89.093 C139.958,91.859 144.054,92.448 146.23,90.901 C150.301,88.007 150.603,81.023 138.094,75.638 C133.823,73.8 121.95,69.278 112.366,65.908" id="路径" fill="#FFC6A0" fill-rule="nonzero"></path>
            <path d="M130.532,85.488 C130.532,85.488 135.12,91.245 142.151,91.702" id="路径" stroke="#DB836E" stroke-width="0.75" stroke-linecap="round" stroke-linejoin="round"></path>
            <path d="M121.708,105.73 C121.708,105.73 121.315,114.294 120.368,119.342" id="路径" stroke="#E4EBF7" stroke-width="1.051" stroke-linecap="round" stroke-linejoin="round"></path>
            <path d="M115.784,161.512 C115.784,161.512 112.214,160.024 113.106,154.372" id="路径" stroke="#648BD8" stroke-width="1.051" stroke-linecap="round" stroke-linejoin="round"></path>
            <path d="M101.52,290.246 C101.52,290.246 105.846,292.303 108.928,291.276 C111.77,290.328 113.492,291.949 116.06,292.462 C118.63,292.976 122.985,293.57 127.832,291.193 C127.728,285.642 120.893,287.183 115.784,284.43 C113.202,283.04 111.972,279.673 112.159,275.567 L102.688,275.567 C102.688,275.567 101.286,286.163 101.519,290.247" id="路径" fill="#CBD1D1" fill-rule="nonzero"></path>
            <path d="M101.496,290.073 C101.496,290.073 103.943,291.354 108.305,290.731 C111.386,290.291 112.045,291.216 115.784,291.77 C119.523,292.324 126.586,291.7 127.694,290.87 C128.109,291.978 127.347,292.947 127.347,292.947 C127.347,292.947 125.824,293.555 122.5,293.778 C120.455,293.915 116.657,294.071 114.837,293.271 C113.037,291.886 109.551,291.354 109.067,293.028 C105.12,293.986 101.657,292.74 101.657,292.74 L101.497,290.073 L101.496,290.073 Z" id="路径" fill="#2B0849" fill-rule="nonzero"></path>
            <path d="M108.824,276.19 L111.94,276.19 C111.94,276.19 111.837,282.941 116.51,284.81 C111.837,285.434 107.89,282.49 108.824,276.19" id="路径" fill="#A4AABA" fill-rule="nonzero"></path>
            <path d="M57.65,272.52 C57.65,272.52 55.528,279.99 53.132,284.916 C51.321,288.64 48.877,292.464 58.637,292.464 C65.335,292.464 67.657,291.981 66.116,285.816 C64.575,279.652 66.384,272.52 66.384,272.52 L57.65,272.52 Z" id="路径" fill="#CBD1D1" fill-rule="nonzero"></path>
            <path d="M51.54,290.04 C51.54,290.04 53.651,291.218 58.222,291.218 C64.35,291.218 66.532,289.556 66.532,289.556 C66.532,289.556 67.137,290.678 65.908,291.736 C64.908,292.598 62.284,293.339 58.464,293.295 C54.287,293.246 52.588,292.725 51.678,292.118 C50.847,291.564 50.986,290.525 51.54,290.04" id="路径" fill="#2B0849" fill-rule="nonzero"></path>
            <path d="M58.533,274.438 C58.533,274.438 58.567,275.967 58.218,277.388 C57.866,278.819 57.131,280.515 57.079,281.558 C57.021,282.718 61.649,283.15 62.273,281.593 C62.896,280.034 63.576,275.118 64.2,274.287 C64.822,273.456 59.26,272.152 58.533,274.437" id="路径" fill="#A4AABA" fill-rule="nonzero"></path>
            <path d="M100.885,277.015 L114.191,277.107 C114.191,277.107 115.482,222.879 116.034,213.051 C116.586,203.223 119.79,169.921 117.031,150.263 L104.551,149.623 L81.826,150.399 C81.826,150.399 81.393,154.343 80.636,160.32 C80.574,160.813 79.959,161.158 79.892,161.678 C79.817,162.26 80.312,163.025 80.21,163.634 C77.86,177.637 73.867,196.56 71.513,210.059 C71.397,210.722 70.286,211.063 70.063,212.736 C70.023,213.036 70.273,214.252 70.175,214.521 C63.339,233.164 59.285,262.105 55.975,276.072 L70.503,276.058 C70.503,276.058 72.688,267.534 74.511,259.18 C77.307,246.363 97.498,174.627 97.498,174.627 L100.498,174.11 L101.535,220.21 C101.535,220.21 101.312,221.438 101.869,222.218 C102.427,223 101.313,223.335 101.479,224.451 L101.869,226.235 C101.869,226.235 101.423,233.375 100.977,238.061 C100.531,242.746 100.885,277.015 100.885,277.015" id="路径" fill="#7BB2F9" fill-rule="nonzero"></path>
            <path d="M77.438,220.434 C78.584,220.528 81.454,218.426 84.354,215.524 M107.55,223.931 C107.55,223.931 110.308,222.828 113.619,220.069" id="形状" stroke="#648BD8" stroke-width="1.051" stroke-linecap="round" stroke-linejoin="round"></path>
            <path d="M108.459,220.905 C108.459,220.905 111.218,219.801 114.529,217.042" id="路径" stroke="#648BD8" stroke-linecap="round" stroke-linejoin="round"></path>
            <path d="M76.099,223.557 C76.099,223.557 78.707,222.97 82.569,220.211 M87.33,150.82 C87.06,153.908 87.627,159.298 83.015,159.893 M104.829,149.075 C104.829,149.075 104.939,163.011 103.543,164.058 C101.336,165.713 100.568,165.992 100.568,165.992 M101.014,149.63 C101.014,149.63 101.049,162.44 99.824,173.875 M94.93,174.965 C94.93,174.965 102.104,173.31 104.31,173.31 M75.671,204.754 C75.355,206.304 75.031,207.821 74.698,209.289 C74.698,209.289 73.248,211.111 73.695,213.045 C74.141,214.979 72.752,215.079 68.735,228.318 C67.049,233.877 64.271,246.808 62.422,255.765 C62.344,256.145 58.404,273.825 58.329,274.188 M77.043,196.743 C76.7627719,198.321554 76.47043,199.897934 76.166,201.472 M83.908,151.414 L82.718,161.827 C82.718,161.827 81.627,161.975 82.222,164.057 C82.333,165.397 79.562,179.749 77.069,194.324 M57.58,272.94 L70.818,272.94" id="形状" stroke="#648BD8" stroke-width="1.051" stroke-linecap="round" stroke-linejoin="round"></path>
            <path d="M117.377,147.423 C117.377,147.423 100.422,144.336 81.677,147.622 C81.834,150.123 81.675,151.75 81.675,151.75 C81.675,151.75 96.282,148.948 117.151,151.44 C117.402,149.098 117.377,147.423 117.377,147.423" id="路径" fill="#192064" fill-rule="nonzero"></path>
            <path d="M107.511,150.353 L107.515009,145.468 C107.516978,145.033721 107.174921,144.675754 106.741,144.658 C104.313,144.566 101.701,144.55 98.946,144.644 C98.5097435,144.660085 98.1638488,145.017451 98.162,145.454 L98.159,150.334 C98.159,150.79 98.53,151.154 98.986,151.142 C101.548343,151.077669 104.111966,151.083338 106.674,151.159 C106.892772,151.166299 107.105184,151.084743 107.262858,150.93291 C107.420531,150.781076 107.510041,150.571891 107.511,150.353" id="路径" fill="#FFFFFF" fill-rule="nonzero"></path>
            <path d="M106.402,149.426 L106.404009,146.366 C106.405862,146.02054 106.133222,145.73595 105.788,145.723 C103.843893,145.659726 101.898293,145.656725 99.954,145.714 C99.6064448,145.725281 99.3299668,146.009267 99.328,146.357 L99.327,149.413 C99.327,149.773 99.618,150.061 99.978,150.053 C101.758,150.013 103.686,150.012 105.74,150.065 C106.1,150.074 106.402,149.786 106.402,149.425" id="路径" fill="#192064" fill-rule="nonzero"></path>
            <path d="M101.485,273.933 L113.757,273.933 M102.652,269.075 C102.658,272.443 102.692,274.834 102.762,275.545 M102.667,263.125 C102.658,264.655 102.652,266.105 102.651,267.438 M102.204,174.024 L103.097,218.426 C103.097,218.426 103.766,219.987 102.873,221.103 C101.981,222.219 105.328,221.773 103.766,223.334 C102.204,224.896 104.659,224.45 103.766,226.681 C103.174,228.161 102.778,247.668 102.676,261.637" id="形状" stroke="#648BD8" stroke-width="1.051" stroke-linecap="round" stroke-linejoin="round"></path>
        </g>
    </g>
</svg>