<?xml version="1.0" encoding="UTF-8"?>
<svg width="252px" height="294px" viewBox="0 0 252 294" version="1.1" xmlns="http://www.w3.org/2000/svg" xmlns:xlink="http://www.w3.org/1999/xlink">
    <title>404</title>
    <g id="页面-1" stroke="none" stroke-width="1" fill="none" fill-rule="evenodd">
        <g id="404">
            <g id="编组" fill="#E4EBF7" fill-rule="nonzero">
                <path d="M0,126.933 L0,124.838 C0,55.892 55.892,-4.4408921e-16 124.838,-4.4408921e-16 L126.934,-4.4408921e-16 C195.88,-4.4408921e-16 251.772,55.892 251.772,124.838 L251.772,126.934 C251.772,195.88 195.88,251.772 126.934,251.772 L124.838,251.772 C55.892,251.772 0,195.88 0,126.934" id="路径"></path>
            </g>
            <path d="M39.755,130.441 C39.4808907,133.401084 37.6402432,135.986751 34.9329898,137.214764 C32.2257365,138.442777 29.0678371,138.124456 26.6601278,136.380847 C24.2524186,134.637238 22.9648354,131.73624 23.287,128.781 C23.7794968,124.26329 27.8227232,120.98784 32.3442846,121.44362 C36.865846,121.899401 40.174034,125.915885 39.755,130.441" id="路径" fill="#FFFFFF" fill-rule="nonzero"></path>
            <path d="M36.975,133.898 L47.457,139.841 M48.373,146.109 L35.725,156.897" id="形状" stroke="#FFFFFF" stroke-width="2"></path>
            <path d="M39.875,158.953 C39.5613023,162.067058 36.7825576,164.337198 33.6685,164.0235 C30.5544424,163.709802 28.2843023,160.931058 28.598,157.817 C28.8009269,155.802558 30.063131,154.049397 31.9091524,153.217916 C33.7551738,152.386435 35.9045579,152.602955 37.5476524,153.785916 C39.190747,154.968877 40.0779269,156.938558 39.875,158.953 M57.588,142.848 C57.4000356,144.890475 56.1306595,146.675066 54.2628933,147.522701 C52.3951271,148.370337 50.2161759,148.150677 48.5551716,146.947306 C46.8941673,145.743935 46.0065214,143.741895 46.23,141.703 C46.5713633,138.58859 49.3592772,136.33145 52.4765401,136.645701 C55.5938029,136.959952 57.8751155,139.728121 57.588,142.848 M99.018,26.4760002 L128.838,26.462 C130.476956,26.4614641 131.991128,25.5865964 132.810142,24.166951 C133.629155,22.7473056 133.628584,20.9985604 132.808642,19.5794509 C131.9887,18.1603414 130.473956,17.2864641 128.835,17.2869998 L99.015,17.3 C97.3758655,17.3005359 95.8615286,18.1754989 95.0424254,19.595299 C94.2233222,21.0150991 94.223894,22.7640349 95.0439254,24.1832991 C95.8639568,25.6025633 97.3788655,26.4765359 99.018,26.4760002 M110.424,44.8120004 L140.244,44.799 C142.751192,44.760905 144.763389,42.7170109 144.762297,40.2095293 C144.761203,37.7020477 142.747225,35.6599089 140.24,35.624 L110.42,35.637 C108.781044,35.6377145 107.266968,36.5127473 106.448108,37.932482 C105.629249,39.3522167 105.630012,41.1009619 106.450108,42.5199821 C107.270205,43.9390023 108.785044,44.8127146 110.424,44.8120004" id="形状" fill="#FFFFFF" fill-rule="nonzero"></path>
            <path d="M112.798,26.462 L112.798,26.46 L128.582,26.454 C126.926898,26.4301103 125.38725,27.2996038 124.553037,28.7292969 C123.718825,30.15899 123.719403,31.9271911 124.55455,33.3563384 C125.389698,34.7854856 126.929914,35.6539721 128.585,35.629 L112.802,35.636 L112.802,35.634 C115.334778,35.6328954 117.387104,33.5787778 117.386,31.046 C117.384895,28.5132222 115.330778,26.4608955 112.798,26.462 M184.523,135.269 C183.97,140.754 179.076,144.752 173.592,144.199 C168.107,143.646 164.109,138.751 164.662,133.267 C165.214,127.782 170.109,123.784 175.594,124.337 C181.079,124.89 185.077,129.784 184.524,135.269" id="形状" fill="#FFFFFF" fill-rule="nonzero"></path>
            <path d="M179.26,141.351 L191.9,148.518 M193.006,156.078 L177.751,169.089" id="形状" stroke="#FFFFFF" stroke-width="2"></path>
            <path d="M184.668,169.658 C184.45014,172.109652 182.930948,174.254836 180.690659,175.274231 C178.450369,176.293625 175.835002,176.029781 173.843459,174.583469 C171.851916,173.137158 170.791797,170.731767 171.068,168.286 C171.488043,164.566534 174.821671,161.876818 178.545876,162.252525 C182.270082,162.628232 184.999317,165.929583 184.668,169.658 M203.34,152.926 C203.112125,155.388825 201.580733,157.540179 199.328258,158.561839 C197.075783,159.583499 194.448381,159.318457 192.445331,157.867517 C190.442282,156.416578 189.37141,154.002718 189.64,151.544 C190.050513,147.786099 193.414139,145.062023 197.175307,145.441434 C200.936475,145.820845 203.688284,149.161822 203.34,152.926" id="形状" fill="#FFFFFF" fill-rule="nonzero"></path>
            <path d="M151.931,191.925 C151.931,193.152177 150.936177,194.147 149.709,194.147 C148.481823,194.147 147.487,193.152177 147.487,191.925 C147.487,190.697823 148.481823,189.703 149.709,189.703 C150.936177,189.703 151.931,190.697823 151.931,191.925 L151.931,191.925 Z M225.27,115.657 C225.27,116.884453 224.274953,117.8795 223.0475,117.8795 C221.820047,117.8795 220.825,116.884453 220.825,115.657 C220.825,114.429823 221.819823,113.435 223.047,113.435 C224.274177,113.435 225.269,114.429823 225.269,115.657 L225.27,115.657 Z M216.38,150.681 C216.379821,151.475201 215.955955,152.208978 215.268067,152.605924 C214.580179,153.00287 213.732776,153.00268 213.045067,152.605424 C212.357358,152.208169 211.933821,151.474201 211.934,150.68 C211.934,149.452271 212.929271,148.457 214.157,148.457 C215.384729,148.457 216.38,149.452271 216.38,150.68 L216.38,150.681 Z M176.917,107.237 C176.934082,108.042261 176.514252,108.793772 175.819583,109.201414 C175.124914,109.609057 174.264086,109.609057 173.569417,109.201414 C172.874748,108.793772 172.454918,108.042261 172.472,107.237 C172.497648,106.027916 173.485144,105.061146 174.6945,105.061146 C175.903856,105.061146 176.891352,106.027916 176.917,107.237 L176.917,107.237 Z M195.291,91.766 C195.308082,92.5712609 194.888252,93.3227718 194.193583,93.7304142 C193.498914,94.1380567 192.638086,94.1380567 191.943417,93.7304142 C191.248748,93.3227718 190.828918,92.5712609 190.846,91.766 C190.871648,90.5569159 191.859144,89.590146 193.0685,89.590146 C194.277856,89.590146 195.265352,90.5569159 195.291,91.766 L195.291,91.766 Z M202.058,180.312 C202.058,181.539729 201.062729,182.535 199.835,182.535 C198.607271,182.535 197.612,181.539729 197.612,180.312 C197.612,179.084271 198.607271,178.089 199.835,178.089 C201.062729,178.089 202.058,179.084271 202.058,180.312 Z" id="形状" stroke="#FFFFFF" stroke-width="2"></path>
            <path d="M214.404,152.903 L212.492,173.087 L201.564,179.077 M173.661,174.393 L167.305,184.207 L155.945,184.207 L151.437,190.691 M174.941,124.769 L174.941,108.965 M220.824,116.851 L207.984,124.752 L192.674,116.85 L192.674,93.991" id="形状" stroke="#FFFFFF" stroke-width="2"></path>
            <path d="M166.588,65.537 L162.637,65.537 C160.020867,65.5298604 157.901691,63.4111319 157.894,60.795 C157.901142,58.1784776 160.020478,56.0591423 162.637,56.052 L166.588,56.052 C169.204522,56.0591423 171.323858,58.1784776 171.331,60.795 C171.323309,63.4111319 169.204133,65.5298604 166.588,65.537" id="路径" fill="#FFFFFF" fill-rule="nonzero"></path>
            <path d="M174.823,29.631 C174.823,13.35 188.021,0.151 204.303,0.151 C220.583,0.151 233.783,13.35 233.783,29.631 C233.783,45.911 220.583,59.111 204.303,59.111 C188.021,59.111 174.823,45.911 174.823,29.631" id="路径" fill="#1890FF" fill-rule="nonzero"></path>
            <path d="M205.952,37.988 C206.452,38.488 206.737,39.13 206.737,39.916 C206.737,40.702 206.451,41.381 205.952,41.88 C205.38,42.38 204.738,42.63 203.952,42.63 C203.167,42.63 202.523,42.345 202.023,41.845 C201.451,41.345 201.203,40.702 201.203,39.916 C201.203,39.13 201.451,38.488 202.023,37.988 C202.523,37.488 203.167,37.238 203.953,37.238 C204.738,37.238 205.415,37.488 205.952,37.988 M210.237,18.525 C211.665,19.774 212.38,21.488 212.38,23.667 C212.38,25.379 211.953,26.797 211.161,27.917 C211.094,28.013 211.024,28.097 210.943,28.182 C210.527,28.611 209.533,29.528 207.987,30.881 C207.385465,31.3495339 206.897353,31.9477097 206.559,32.631 C206.197922,33.3637457 206.014309,34.171166 206.023,34.988 L206.023,35.488 L201.916,35.488 L201.916,34.988 C201.916,33.631 202.131,32.452 202.63,31.488 C203.094,30.524 204.487,29.024 206.808,26.952 L207.238,26.452 C207.881,25.667 208.202,24.809 208.202,23.917 C208.202,22.737 207.844,21.809 207.202,21.132 C206.524,20.452 205.559,20.131 204.344,20.131 C202.808,20.131 201.702,20.595 200.987,21.561 C200.617,22.061 200.366,22.696 200.227,23.465 C200.049037,24.412546 199.220108,25.0980629 198.256,25.095 L198.252,25.095 C196.975,25.095 195.995,23.912 196.272,22.665 C196.609,21.147 197.292,19.885 198.345,18.881 C199.881,17.381 201.952,16.631 204.595,16.631 C206.915,16.631 208.809,17.238 210.237,18.525" id="形状" fill="#FFFFFF" fill-rule="nonzero"></path>
            <path d="M52.04,75.732 C52.04,75.732 73.85,81.092 79.347,91.677 C84.922,102.417 72.995,100.937 63.617,96.612 C52.757,91.604 38.917,84.79 52.04,75.732" id="路径" fill="#FFB594" fill-rule="nonzero"></path>
            <path d="M90.483,67.105 L90.034,69.998 C89.281,70.488 85.286,67.335 85.286,67.335 L83.641,68.083 L82.295,62.399 C82.295,62.399 89.11,57.81 91.212,57.381 C93.664,56.88 101.096,58.321 101.912,59.659 C101.912,59.659 103.232,60.145 99.685,60.349 C96.137,60.552 94.642,60.796 92.895,63.481 C91.148,66.167 90.483,67.105 90.483,67.105" id="路径" fill="#FFC6A0" fill-rule="nonzero"></path>
            <path d="M128.055,110.968 C125.428,103.244 121.905,97.788 119.138,95.49 C115.638,92.584 109.798,93.265 107.772,91.303 C106.502,90.072 104.557,90.106 104.557,90.106 C104.557,90.106 89.577,86.948 87.729,86.627 C85.359,86.217 85.605,85.913 81.675,85.222 C80.105,83.315 78.758,84.1 78.758,84.1 L71.648,82.717 C70.795,81.245 69.225,81.694 69.225,81.694 L66.757,80.797 C65.112,90.773 59.017,94.593 59.017,94.593 C60.812,95.715 74.72,102.893 74.72,102.893 L79.827,140.003 C79.827,140.003 76.506,145.697 81.173,149.112 C81.173,149.112 101.056,145.369 116.094,148.783 C116.094,148.783 119.141,146.237 117.066,139.977 C117.589,136.967 118.46,131.714 118.802,128.355 C119.187,129.127 120.821,130.273 121.942,131.832 C121.942,131.832 131.349,124.467 132.994,117.82 C132.162,117.097 131.396,116.235 130.727,115.367 C130.16,114.631 130.369,113.311 129.962,112.65 C129.293,111.566 128.158,111.272 128.055,110.968" id="路径" fill="#FFFFFF" fill-rule="nonzero"></path>
            <path d="M101.09,289.599 C101.09,289.599 105.385,291.64 108.444,290.62 C111.265,289.68 112.974,291.288 115.524,291.798 C118.074,292.308 122.398,292.898 127.21,290.538 C127.107,285.028 120.321,286.558 115.25,283.825 C112.687,282.445 111.466,279.103 111.652,275.026 L102.25,275.026 C102.25,275.026 100.858,285.546 101.09,289.599" id="路径" fill="#CBD1D1" fill-rule="nonzero"></path>
            <path d="M101.067,289.427 C101.067,289.427 103.495,290.698 107.826,290.08 C110.884,289.643 111.538,290.561 115.249,291.111 C118.961,291.661 125.973,291.042 127.072,290.217 C127.485,291.317 126.729,292.28 126.729,292.28 C126.729,292.28 125.217,292.883 121.917,293.104 C119.887,293.24 116.117,293.395 114.31,292.601 C112.523,291.226 109.063,290.698 108.582,292.36 C104.664,293.31 101.227,292.074 101.227,292.074 L101.067,289.427 L101.067,289.427 Z" id="路径" fill="#2B0849" fill-rule="nonzero"></path>
            <path d="M108.341,275.645 L111.435,275.645 C111.435,275.645 111.332,282.347 115.971,284.203 C111.331,284.821 107.413,281.9 108.341,275.645" id="路径" fill="#A4AABA" fill-rule="nonzero"></path>
            <path d="M57.542,272.002 C57.542,272.002 55.435,279.418 53.057,284.308 C51.259,288.003 48.832,291.8 58.522,291.8 C65.17,291.8 67.475,291.32 65.945,285.201 C64.415,279.081 66.211,272.002 66.211,272.002 L57.542,272.002 L57.542,272.002 Z" id="路径" fill="#CBD1D1" fill-rule="nonzero"></path>
            <path d="M51.476,289.394 C51.476,289.394 53.573,290.563 58.109,290.563 C64.192,290.563 66.358,288.913 66.358,288.913 C66.358,288.913 66.96,290.027 65.739,291.078 C64.746,291.933 62.142,292.669 58.349,292.624 C54.204,292.576 52.517,292.058 51.613,291.456 C50.788,290.906 50.926,289.876 51.476,289.394" id="路径" fill="#2B0849" fill-rule="nonzero"></path>
            <path d="M58.419,273.905 C58.419,273.905 58.452,275.424 58.105,276.835 C57.756,278.255 57.027,279.939 56.975,280.974 C56.917,282.125 61.512,282.554 62.13,281.008 C62.75,279.461 63.424,274.581 64.043,273.756 C64.662,272.931 59.14,271.637 58.419,273.906" id="路径" fill="#A4AABA" fill-rule="nonzero"></path>
            <path d="M99.66,278.115 L113.038,278.207 C113.038,278.207 114.336,223.687 114.891,213.804 C115.445,203.922 118.667,170.44 115.893,150.676 L103.346,150.032 L80.497,150.812 C80.497,150.812 80.063,154.778 79.302,160.788 C79.239,161.284 78.62,161.631 78.553,162.153 C78.478,162.738 78.976,163.507 78.873,164.119 C76.509,178.199 72.496,197.223 70.129,210.796 C70.013,211.462 68.895,211.805 68.671,213.487 C68.631,213.789 68.882,215.012 68.783,215.282 C61.91,234.026 57.834,263.124 54.506,277.167 L69.113,277.153 C69.113,277.153 71.31,268.583 73.143,260.183 C75.954,247.297 96.254,175.173 96.254,175.173 L99.27,174.652 L100.313,221.002 C100.313,221.002 100.089,222.236 100.65,223.022 C101.21,223.807 100.09,224.145 100.258,225.266 L100.65,227.06 C100.65,227.06 100.201,234.238 99.752,238.95 C99.304,243.66 99.66,278.115 99.66,278.115" id="路径" fill="#7BB2F9" fill-rule="nonzero"></path>
            <path d="M76.085,221.227 C77.238,221.321 80.123,219.208 83.04,216.292 M106.36,224.743 C106.36,224.743 109.134,223.633 112.463,220.86" id="形状" stroke="#648BD8" stroke-width="1.051" stroke-linecap="round" stroke-linejoin="round"></path>
            <path d="M107.275,221.701 C107.275,221.701 110.048,220.591 113.377,217.817" id="路径" stroke="#648BD8" stroke-linecap="round" stroke-linejoin="round"></path>
            <path d="M74.74,224.368 C74.74,224.368 77.362,223.777 81.245,221.003 M86.03,151.235 C85.76,154.341 86.33,159.76 81.694,160.358 M103.625,149.481 C103.625,149.481 103.735,163.493 102.332,164.546 C100.113,166.21 99.342,166.49 99.342,166.49 M99.79,150.039 C99.79,150.039 99.825,162.919 98.594,174.416 M93.673,175.512 C93.673,175.512 100.885,173.848 103.104,173.848 M74.31,205.462 C74.0003957,206.985544 73.6740426,208.505635 73.331,210.022 C73.331,210.022 71.873,211.854 72.322,213.798 C72.771,215.742 71.375,215.843 67.337,229.153 C65.641,234.743 62.847,247.744 60.989,256.75 L60.758,257.87 M75.689,197.408 C75.4069415,198.994859 75.1129331,200.579571 74.807,202.162 M82.591,151.834 L81.395,162.301 C81.395,162.301 80.298,162.451 80.895,164.545 C81.008,165.891 78.221,180.32 75.715,194.975 M56.12,274.019 L69.43,274.019" id="形状" stroke="#648BD8" stroke-width="1.051" stroke-linecap="round" stroke-linejoin="round"></path>
            <path d="M116.241,147.821 C116.241,147.821 99.194,144.717 80.348,148.021 C80.506,150.535 80.345,152.171 80.345,152.171 C80.345,152.171 95.032,149.353 116.015,151.859 C116.267,149.504 116.241,147.821 116.241,147.821" id="路径" fill="#192064" fill-rule="nonzero"></path>
            <path d="M106.322,150.766 L106.32502,145.855 C106.328039,145.417919 105.983751,145.057257 105.547,145.04 C103.107,144.949 100.481,144.932 97.711,145.026 C97.2717558,145.04158 96.9233357,145.401482 96.922,145.841 L96.9189934,150.747 C96.9181151,150.966034 97.005974,151.176089 97.1625419,151.329265 C97.3191098,151.482442 97.5310381,151.56568 97.75,151.56 C100.135,151.5 102.723,151.496 105.48,151.577 C105.699926,151.584293 105.913455,151.502346 106.072036,151.349793 C106.230616,151.197239 106.320771,150.987043 106.322,150.767" id="路径" fill="#FFFFFF" fill-rule="nonzero"></path>
            <path d="M105.207,149.834 L105.209015,146.758 C105.211387,146.410675 104.93711,146.124435 104.59,146.112 C102.635243,146.04785 100.678964,146.044515 98.724,146.102 C98.3740099,146.112771 98.0954504,146.398847 98.0939865,146.749 L98.0939865,149.821 C98.092878,149.993885 98.1617491,150.159869 98.284938,150.281175 C98.4081269,150.40248 98.5751528,150.468786 98.748,150.465 C100.679145,150.422465 102.611031,150.426133 104.542,150.476 C104.904,150.486 105.207,150.196 105.207,149.834" id="路径" fill="#192064" fill-rule="nonzero"></path>
            <path d="M100.263,275.016 L112.601,275.016 M101.436,270.131 C101.442,273.518 101.478,275.921 101.547,276.637 M101.451,264.149 C101.442577,265.594653 101.437577,267.040324 101.436,268.486 M100.986,174.566 L101.884,219.208 C101.884,219.208 102.557,220.778 101.659,221.9 C100.762,223.022 104.127,222.573 102.557,224.143 C100.987,225.713 103.454,225.265 102.557,227.508 C101.961,228.997 101.563,248.608 101.461,262.654" id="形状" stroke="#648BD8" stroke-width="1.051" stroke-linecap="round" stroke-linejoin="round"></path>
            <path d="M46.876,83.028 C46.876,83.028 46.36,89.073 54.099,88.58 C65.299,87.868 63.317,79.235 85.639,66.925 C84.853,64.217 83.192,62.181 83.192,62.181 C83.192,62.181 72.124,65.291 60.608,70.227 C53.842,73.127 47.213,76.579 46.876,83.028 M104.46,90.658 L105.401,85.286 L96.517,73.856 L91.48,79.228 L89.74,87.062 C89.7124417,87.1805147 89.7542608,87.3044232 89.848,87.382 C90.813,88.182 96.348,92.395 104.195,90.926 C104.330005,90.8999519 104.434985,90.7933815 104.459,90.658" id="形状" fill="#FFC6A0" fill-rule="nonzero"></path>
            <path d="M93.942,78.988 C93.942,78.988 89.409,76.135 91.51,72.133 C93.133,69.043 96.023,73.266 96.023,73.266 C96.023,73.266 96.543,69.624 99.144,69.624 C99.664,68.584 100.705,65.462 100.705,65.462 C100.705,65.462 112.15,68.063 114.231,68.583 C114.231,73.786 111.927,88.007 106.391,88.444 C97.499,89.147 93.942,78.988 93.942,78.988" id="路径" fill="#FFC6A0" fill-rule="nonzero"></path>
            <path d="M113.874,73.047 C116.475,70.966 117.344,63.325 117.344,63.325 C117.344,63.325 114.865,62.835 110.704,61.275 C106.021,59.194 97.906,56.528 93.224,62.251 C83.556,65.474 91.174,82.074 91.174,82.074 L93.887,79.053 C93.887,79.053 89.952,75.766 91.807,72.81 C93.977,69.348 95.727,73.883 95.727,73.883 C95.727,73.883 96.364,71.496 99.308,70.541 C99.663,69.831 100.344,67.867 100.74,66.691 C100.915937,66.1653109 101.463353,65.8601796 102.003,65.987 C104.403,66.545 110.68,68.006 113.359,68.649 C113.881,68.774 114.23,69.264 114.179,69.799 L113.874,73.047 L113.874,73.047 Z" id="路径" fill="#520038" fill-rule="nonzero"></path>
            <path d="M104.977,75.665 C104.874,76.275 104.395,76.703 103.907,76.621 C103.418,76.538 103.106,75.977 103.209,75.367 C103.312,74.757 103.791,74.329 104.279,74.411 C104.767,74.493 105.079,75.055 104.977,75.665 M112.132,77.295 C112.029,77.905 111.55,78.333 111.062,78.251 C110.574,78.168 110.262,77.607 110.364,76.997 C110.467,76.387 110.946,75.959 111.434,76.041 C111.922,76.123 112.234,76.684 112.132,77.295" id="形状" fill="#552950" fill-rule="nonzero"></path>
            <polyline id="路径" stroke="#DB836E" stroke-width="1.118" stroke-linecap="round" stroke-linejoin="round" points="110.13 74.441 109.234 76.051 108.936 80.408 106.708 80.408"></polyline>
            <path d="M110.846,74.082 C110.846,74.082 112.636,73.366 113.352,74.619" id="路径" stroke="#5C2552" stroke-width="1.118" stroke-linecap="round" stroke-linejoin="round"></path>
            <path d="M92.386,73.883 C92.386,73.883 92.863,72.769 93.499,73.167 C94.136,73.565 94.773,74.6 94.057,75.157 C93.34,75.713 94.216,76.827 94.216,76.827" id="路径" stroke="#DB836E" stroke-width="1.118" stroke-linecap="round" stroke-linejoin="round"></path>
            <path d="M103.287,72.531 C103.287,72.531 105.117,73.644 107.424,73.485" id="路径" stroke="#5C2552" stroke-width="1.118" stroke-linecap="round" stroke-linejoin="round"></path>
            <path d="M103.685,81.363 C103.685,81.363 105.912,82.556 108.061,82.556 M104.64,83.909 C104.64,83.909 105.594,84.307 106.151,84.227 M94.693,80.806 C94.693,80.806 97.001,88.206 105.117,88.445" id="形状" stroke="#DB836E" stroke-width="1.118" stroke-linecap="round" stroke-linejoin="round"></path>
            <path d="M81.45,88.985 C81.45,88.985 81.9,94.632 76.515,101.772 M69,82.255 C69,82.255 68.274,91.537 60.796,96.461" id="形状" stroke="#E4EBF7" stroke-width="1.101" stroke-linecap="round" stroke-linejoin="round"></path>
            <path d="M129.405,122.466 C129.405,122.466 124.133,129.869 119.983,133.234" id="路径" stroke="#E4EBF7" stroke-width="1.051" stroke-linecap="round" stroke-linejoin="round"></path>
            <path d="M119.306,106.93 C119.306,106.93 119.758,111.296 117.179,138.992" id="路径" stroke="#E4EBF7" stroke-width="1.101" stroke-linecap="round" stroke-linejoin="round"></path>
            <path d="M150.028,150.833 L100.191,150.833 C99.6331924,150.833 99.181,150.380808 99.181,149.823 L99.181,118.135 C99.181,117.578 99.633,117.125 100.191,117.125 L150.028,117.125 C150.586,117.125 151.038,117.578 151.038,118.135 L151.038,149.823 C151.038,150.380808 150.585808,150.833 150.028,150.833" id="路径" fill="#F2D7AD" fill-rule="nonzero"></path>
            <path d="M150.29,150.833 L130.427,150.833 L130.427,117.126 L151.211,117.126 L151.211,149.912 C151.211,150.420102 150.799102,150.832 150.291,150.832" id="路径" fill="#F4D19D" fill-rule="nonzero"></path>
            <path d="M123.554,127.497002 L92.917,127.497002 C92.7234087,127.497487 92.5457021,127.389983 92.4562754,127.218284 C92.3668486,127.046584 92.380628,126.839348 92.492,126.681 L98.872,117.568 C99.065,117.291 99.382,117.126 99.722,117.126 L130.814,117.126 L123.554,127.497002 L123.554,127.497002 Z" id="路径" fill="#F2D7AD" fill-rule="nonzero"></path>
            <polygon id="路径" fill="#CC9B6E" fill-rule="nonzero" points="123.689 128.048 99.25 128.048 99.25 127.529 123.419 127.529 130.602 117.269 131.026 117.567"></polygon>
            <path d="M158.298,127.497 L139.629,127.497 C138.976156,127.497 138.361454,127.189464 137.97,126.667 L130.814,117.126 L150.779,117.126 C151.269,117.126 151.729,117.356 152.023,117.748 L158.713,126.668 C158.83069,126.825236 158.849542,127.035436 158.761708,127.211104 C158.673874,127.386772 158.494403,127.497811 158.298,127.498" id="路径" fill="#F4D19D" fill-rule="nonzero"></path>
            <path d="M157.847,128.08 L138.463,128.08 L130.606,117.605 L131.021,117.295 L138.721,127.561 L157.847,127.561 L157.847,128.08 Z M130.554,150.286 L130.522,142.109 L131.041,142.107 L131.073,150.284 L130.554,150.286 Z" id="形状" fill="#CC9B6E" fill-rule="nonzero"></path>
            <path d="M130.511,139.384 L130.431,117.97 L130.95,117.968 L131.03,139.382 L130.511,139.384 Z M111.876,140.533 L111.378,140.39 L112.857,135.223 L113.355,135.366 L111.876,140.533 Z M108.437,140.661 L105.758,137.726 L108.423,134.292 L108.833,134.61 L106.436,137.699 L108.82,140.311 L108.437,140.661 Z M116.607,140.661 L116.224,140.311 L118.607,137.699 L116.21,134.61 L116.62,134.292 L119.285,137.726 L116.607,140.661 Z" id="形状" fill="#CC9B6E" fill-rule="nonzero"></path>
            <path d="M154.316,131.493 L151.202,129.533 L151.24,133.047 L150.197,133.139 C148.515,133.254 146.563,133.369 145.408,133.369 C143.506,133.369 142.715,135.627 147.638,136.017 L144.993,135.421 C144.993,135.421 142.825,136.738 145.497,137.721 C145.497,137.721 143.917,138.938 146.058,140.301 C145.474,143.805 151.305,144.359 153.18,143.891 C155.056,143.421 157.413,141.532 157.667,138.731 C157.947,135.646 156.777,133.299 154.317,131.493" id="路径" fill="#FFC6A0" fill-rule="nonzero"></path>
            <path d="M153.686,133.178 C153.686,133.178 147.164,133.648 145.326,133.55 C143.49,133.452 143.422,135.74 147.685,135.814 C151.424,135.964 153.136,135.77 153.136,135.77" id="路径" stroke="#DB836E" stroke-width="1.051" stroke-linecap="round" stroke-linejoin="round"></path>
            <path d="M145.16,135.478 C143.31,136.824 145.721,137.833 145.721,137.833 C145.721,137.833 149.199,138.731 152.451,138.45" id="路径" stroke="#DB836E" stroke-width="1.051" stroke-linecap="round" stroke-linejoin="round"></path>
            <path d="M151.89,141.311 C151.89,141.311 145.61,141.422 145.16,139.179 C144.937,137.833 145.61,137.777 145.61,137.777 M146.114,140.469 C146.114,140.469 145.011,143.629 151.554,144.002 M151.202,129.533 L151.202,133.01 M52.838,88.887 C56.371,88.55 61.261,87.639 66.42,81.133" id="形状" stroke="#DB836E" stroke-width="1.051" stroke-linecap="round" stroke-linejoin="round"></path>
            <path d="M168.567,247.919 C164.895963,247.919 161.92,244.943037 161.92,241.272 L161.92,174.806 C161.92,171.134963 164.895963,168.159 168.567,168.159 C172.238037,168.159 175.214,171.134963 175.214,174.806 L175.214,241.272 C175.214,244.943037 172.238037,247.919 168.567,247.919" id="路径" fill="#5BA02E" fill-rule="nonzero"></path>
            <path d="M176.543,247.254 C172.872354,247.253448 169.897,244.277646 169.897,240.607 L169.897,207.375 C169.867635,204.981007 171.127989,202.756192 173.196492,201.550638 C175.264996,200.345084 177.822004,200.345084 179.890508,201.550638 C181.959011,202.756192 183.219365,204.981007 183.19,207.375 L183.19,240.607 C183.19,244.278037 180.214037,247.254 176.543,247.254" id="路径" fill="#92C110" fill-rule="nonzero"></path>
            <path d="M186.443,293.214 L158.92,293.214 C157.159869,293.214 155.733,291.787131 155.733,290.027 L155.733,243.893 C155.733,242.132869 157.159869,240.706 158.92,240.706 L186.444,240.706 C188.204131,240.706 189.631,242.132869 189.631,243.893 L189.631,290.027 C189.631,291.787131 188.204131,293.214 186.444,293.214" id="路径" fill="#F2D7AD" fill-rule="nonzero"></path>
            <path d="M88.979,89.081 C88.979,89.081 96.755,94.465 105.579,91.923" id="路径" stroke="#E4EBF7" stroke-width="1.101" stroke-linecap="round" stroke-linejoin="round"></path>
        </g>
    </g>
</svg>