<?xml version="1.0" encoding="UTF-8"?>
<svg width="254px" height="294px" viewBox="0 0 254 294" version="1.1" xmlns="http://www.w3.org/2000/svg" xmlns:xlink="http://www.w3.org/1999/xlink">
    <title>500</title>
    <g id="页面-1" stroke="none" stroke-width="1" fill="none" fill-rule="evenodd">
        <g id="500" transform="translate(0.000000, 0.734000)">
            <g id="编组" transform="translate(0.000000, 0.000000)" fill="#E4EBF7" fill-rule="nonzero">
                <path d="M0,127.8 L0,125.69 C0,56.274 56.273,-3.16413562e-15 125.69,-3.16413562e-15 L127.8,-3.16413562e-15 C197.216,-3.16413562e-15 253.49,56.274 253.49,125.69 L253.49,127.8 C253.49,197.217 197.216,253.49 127.8,253.49 L125.69,253.49 C56.273,253.49 0,197.217 0,127.8" id="路径"></path>
            </g>
            <path d="M39.989,131.707 C39.6905047,134.66891 37.8345232,137.246583 35.1201858,138.469034 C32.4058485,139.691484 29.2455277,139.372994 26.8296857,137.633534 C24.4138438,135.894074 23.1095045,132.99791 23.408,130.036 C23.8735057,125.461103 27.9573591,122.128319 32.5326997,122.58944 C37.1080404,123.050562 40.4447368,127.13122 39.988,131.707" id="路径" fill="#FFFFFF" fill-rule="nonzero"></path>
            <path d="M37.19,135.189 L47.743,141.172 M48.665,147.483 L35.931,158.344" id="形状" stroke="#FFFFFF" stroke-width="2"></path>
            <path d="M40.11,160.415 C39.9216385,162.456438 38.6525939,164.239916 36.7856475,165.086947 C34.918701,165.933978 32.7408507,165.714352 31.0806137,164.51162 C29.4203766,163.308889 28.5329743,161.307943 28.756,159.27 C29.0967671,156.156172 31.8840447,153.899239 35.0006559,154.213535 C38.1172671,154.527831 40.3978027,157.295831 40.11,160.415 M57.943,144.199 C57.7460735,146.249112 56.4671589,148.037111 54.5906158,148.885831 C52.7140727,149.734552 50.5268337,149.514221 48.8572655,148.308285 C47.1876973,147.102348 46.291085,145.0952 46.507,143.047 C46.8312631,139.894149 49.6468507,137.599011 52.8003454,137.916952 C55.95384,138.234894 58.2546187,141.045874 57.943,144.2 M99.656,27.033 L129.68,27.02 C131.33021,27.0192855 132.854685,26.1382488 133.679171,24.7087679 C134.503657,23.2792871 134.502895,21.5185343 133.677171,20.0897679 C132.851448,18.6610016 131.32621,17.7812855 129.676,17.7819996 L99.652,17.795 C97.1384626,17.8483833 95.1290107,19.9018548 95.1300989,22.4159588 C95.1311879,24.9300628 97.1424173,26.9817934 99.656,27.033 M111.14,45.4950004 L141.163,45.482 C142.836131,45.516085 144.396891,44.642725 145.243034,43.1989203 C146.089178,41.7551156 146.088403,39.966617 145.24101,38.5235456 C144.393617,37.0804741 142.832101,36.2084661 141.159,36.244 L111.135,36.257 C109.48479,36.2577145 107.960315,37.1387511 107.135829,38.568232 C106.311342,39.9977129 106.312105,41.7584658 107.137829,43.1872321 C107.963552,44.6159984 109.48879,45.4957146 111.139,45.4950004" id="形状" fill="#FFFFFF" fill-rule="nonzero"></path>
            <path d="M113.53,27.02 L113.53,27.018 L129.42,27.011 C126.868997,27.0123807 124.802119,29.0814967 124.8035,31.6325 C124.804881,34.1835033 126.873997,36.2503807 129.425,36.249 L113.533,36.256 L113.533,36.254 C116.045441,36.2006282 118.05401,34.1480487 118.052921,31.6350412 C118.051833,29.1220336 116.041486,27.0711951 113.529,27.02 M150.167,69.69 L146.188,69.69 C143.554422,69.6817623 141.421686,67.5485794 141.414,64.915 C141.421689,62.281584 143.554584,60.1486889 146.188,60.141 L150.167,60.141 C152.800579,60.1486861 154.933762,62.2814223 154.942,64.915 C154.934311,67.5489683 152.800968,69.6823111 150.167,69.69" id="形状" fill="#FFFFFF" fill-rule="nonzero"></path>
            <path d="M171.687,29.833 C171.687,13.441 184.976,0.153 201.368,0.153 C217.76,0.153 231.048,13.441 231.048,29.833 C231.048,46.226 217.76,59.514 201.368,59.514 C184.976,59.514 171.688,46.226 171.688,29.834" id="路径" fill="#FF603B" fill-rule="nonzero"></path>
            <path d="M203.557,19.034 L202.881,34.069 C202.851392,34.8832103 202.182748,35.5279818 201.368,35.5279818 C200.553252,35.5279818 199.884608,34.8832103 199.855,34.069 L199.18,19.034 C199.150331,18.2327986 199.560846,17.4794279 200.250184,17.0700167 C200.939522,16.6606055 201.797478,16.6606055 202.486816,17.0700167 C203.176154,17.4794279 203.586669,18.2327986 203.557,19.034 M203.293,38.412 C203.806,38.889 204.063,39.512 204.063,40.282 C204.063,41.052 203.806,41.675 203.293,42.189 C202.743,42.665 202.083,42.922 201.35,42.922 C200.647069,42.9346403 199.970222,42.6559387 199.48,42.152 C198.93,41.638 198.674,41.016 198.674,40.282 C198.674,39.512 198.93,38.889 199.48,38.412 C199.993,37.899 200.617,37.679 201.35,37.679 C202.12,37.679 202.78,37.899 203.293,38.412" id="形状" fill="#FFFFFF" fill-rule="nonzero"></path>
            <path d="M119.3,132.874 C123.726,132.276 122.912,131.67 123.379,128.096 C124.054,122.916 120.271,111.161 115.117,102.978 C114.029,92.258 102.519,91.738 102.519,91.738 C102.519,91.738 106.831,96.633 106.715,107.937 C108.113,113.18 107.519,122.387 107.519,122.387 C107.519,122.387 112.774,133.756 119.299,132.874" id="路径" fill="#FFB594" fill-rule="nonzero"></path>
            <path d="M100.944,91.209 C100.944,91.209 102.407,90.626 104.155,91.791 C112.235,93.189 114.523,98.497 115.455,103.159 C117.319,104.441 117.319,105.489 117.319,106.655 C117.684,107.432 118.834,109.685 118.834,109.685 C118.834,109.685 111.609,111.433 107.88,116.443 C106.481,110.033 100.944,91.208 100.944,91.208" id="路径" fill="#FFFFFF" fill-rule="nonzero"></path>
            <path d="M94.008,90.099 L95.027,84.284 L85.797,72.41 L80.564,77.991 L77.971,87.854 C77.971,87.854 86.361,92.982 94.008,90.1" id="路径" fill="#FFB594" fill-rule="nonzero"></path>
            <path d="M82.931,77.815 C82.931,77.815 78.374,74.947 80.486,70.923 C82.118,67.816 85.023,72.062 85.023,72.062 C85.023,72.062 85.547,68.4 88.162,68.4 C88.685,67.354 89.731,64.216 89.731,64.216 C89.731,64.216 101.238,66.831 103.331,67.354 C103.33,72.584 101.014,86.883 95.447,87.323 C86.507,88.029 82.931,77.815 82.931,77.815" id="路径" fill="#FFC6A0" fill-rule="nonzero"></path>
            <path d="M102.971,71.842 C105.587,69.749 106.46,62.067 106.46,62.067 C106.46,62.067 103.968,61.575 99.784,60.005 C95.076,57.913 86.917,55.234 82.209,60.987 C72.669,65.397 80.147,80.917 80.147,80.917 L82.876,77.88 C82.876,77.88 78.92,74.576 80.784,71.603 C82.967,68.123 84.727,72.683 84.727,72.683 C84.727,72.683 85.367,70.283 88.327,69.323 C88.683,68.609 89.367,66.633 89.767,65.451 C89.9446793,64.9230971 90.4946906,64.6169096 91.037,64.744 C93.447,65.304 99.76,66.774 102.454,67.42 C102.978,67.546 103.33,68.039 103.279,68.576 L102.971,71.842 L102.971,71.842 Z" id="路径" fill="#520038" fill-rule="nonzero"></path>
            <path d="M101.22,76.113 C101.116,76.726 100.635,77.157 100.144,77.073 C99.654,76.991 99.339,76.427 99.442,75.813 C99.546,75.2 100.027,74.769 100.518,74.852 C101.009,74.935 101.323,75.499 101.22,76.112 M94.26,74.673 C94.156,75.286 93.675,75.717 93.184,75.633 C92.694,75.551 92.379,74.987 92.482,74.373 C92.586,73.76 93.067,73.329 93.558,73.413 C94.049,73.495 94.363,74.059 94.26,74.673" id="形状" fill="#552950" fill-rule="nonzero"></path>
            <polyline id="路径" stroke="#DB836E" stroke-width="1.063" stroke-linecap="round" stroke-linejoin="round" points="99.206 73.243 98.306 74.863 98.006 79.243 95.766 79.243"></polyline>
            <path d="M99.926,72.883 C99.926,72.883 101.726,72.163 102.446,73.423" id="路径" stroke="#5C2552" stroke-width="1.117" stroke-linecap="round" stroke-linejoin="round"></path>
            <path d="M81.367,72.683 C81.367,72.683 81.847,71.563 82.487,71.963 C83.127,72.363 83.767,73.403 83.047,73.963 C82.327,74.523 83.207,75.643 83.207,75.643" id="路径" stroke="#DB836E" stroke-width="1.117" stroke-linecap="round" stroke-linejoin="round"></path>
            <path d="M92.326,71.323 C92.326,71.323 94.166,72.443 96.486,72.283" id="路径" stroke="#5C2552" stroke-width="1.117" stroke-linecap="round" stroke-linejoin="round"></path>
            <path d="M92.726,80.203 C92.726,80.203 94.966,81.403 97.126,81.403 M93.686,82.763 C93.686,82.763 94.646,83.163 95.206,83.083 M83.687,79.643 C83.687,79.643 85.473,86.19 92.949,87.597" id="形状" stroke="#DB836E" stroke-width="1.063" stroke-linecap="round" stroke-linejoin="round"></path>
            <path d="M95.548,91.262 C95.548,91.262 94.48,94.083 87.25,93.367 C80.02,92.65 76.96,88.323 76.96,88.323" id="路径" stroke="#E4EBF7" stroke-width="1.136" stroke-linecap="round" stroke-linejoin="round"></path>
            <path d="M78.126,87.077 C78.126,87.077 84.652,92.049 94.596,89.563 C94.596,89.563 104.173,90.583 106.132,94.885 C111.492,106.655 106.675,131.72 106.132,134.847 C109.628,138.902 105.666,143.33 105.666,143.33 C90.042,139.782 69.856,142.73 69.856,142.73 C65.007,139.184 68.633,133.686 68.633,133.686 L62.38,109.919 C59.895,94.692 63.213,90.116 65.929,89.176 C68.959,88.127 73.969,87.894 73.969,87.894 C74.465,87.836 75.049,87.818 75.339,87.661 C77.699,86.379 78.126,87.078 78.126,87.078" id="路径" fill="#FFFFFF" fill-rule="nonzero"></path>
            <path d="M65.828,89.409 C65.828,89.409 58.953,89.874 58.238,97.565 C57.772,106.422 61.268,108.519 61.268,108.519 C61.268,108.519 67.343,130.621 78.064,131.476 C86.454,129.3 82.822,124.774 82.725,120.056 C82.492,108.752 75.617,103.159 75.617,103.159 C75.617,103.159 71.405,89.409 65.828,89.409" id="路径" fill="#FFC6A0" fill-rule="nonzero"></path>
            <path d="M71.716,123.824 C71.716,123.824 72.571,135.088 81.544,130.31 C86.309,127.774 89.125,116.482 91.333,107.742 C92.789,101.974 93.913,95.545 93.913,95.545 L88.94,93.836 C88.94,93.836 86.532,99.352 81.171,106.111 C76.836,111.578 72.027,117.221 71.716,123.824" id="路径" fill="#FFC6A0" fill-rule="nonzero"></path>
            <path d="M108.463,104.79 C108.463,104.79 110.21,107.514 106.132,135.325 C108.508,137.541 107.185,141.337 105.899,142.835" id="路径" stroke="#E4EBF7" stroke-width="1.085" stroke-linecap="round" stroke-linejoin="round"></path>
            <path d="M123.262,131.126 C123.262,131.126 122.835,133.858 111.492,133.107 C96.305,132.101 86.166,129.857 86.166,129.857 L87.099,124.057 C87.099,124.057 87.822,124.272 96.809,123.989 C108.696,123.616 115.523,117.919 121.773,122.967 C125.812,126.23 123.262,131.127 123.262,131.127" id="路径" fill="#FFC6A0" fill-rule="nonzero"></path>
            <path d="M70.24,90.573 C70.24,90.573 64.647,85.834 59.186,93.253 C55.868,100.476 59.703,108.537 61.85,112.831 C61.54,116.56 64.18,117.142 64.18,117.142 C64.18,117.142 64.288,118.037 65.696,119.822 C69.774,112.792 72.416,110.656 79.407,107.276 C79.079,106.62 77.53,104.011 77.582,103.509 C77.757,101.819 76.3,100.886 76.3,100.886 C76.3,100.886 76.014,100.73 75.135,98.148 C74.347,95.835 73.099,92.971 70.24,90.573" id="路径" fill="#FFFFFF" fill-rule="nonzero"></path>
            <path d="M90.232,287.626 C90.232,287.626 95.087,289.934 98.545,288.781 C101.733,287.718 103.665,289.536 106.547,290.112 C109.428,290.689 114.316,291.355 119.754,288.688 C119.637,282.46 111.968,284.189 106.236,281.1 C103.341,279.54 101.96,275.764 102.17,271.156 L91.544,271.156 C91.544,271.156 89.971,283.046 90.232,287.626" id="路径" fill="#CBD1D1" fill-rule="nonzero"></path>
            <path d="M90.207,287.432 C90.207,287.432 92.952,288.869 97.846,288.17 C101.302,287.676 101.069,288.83 105.264,289.452 C109.459,290.073 118.356,289.258 119.598,288.326 C120.064,289.568 119.21,290.656 119.21,290.656 C119.21,290.656 117.501,291.338 113.772,291.588 C111.477,291.742 105.674,291.864 103.632,290.967 C101.612,289.413 98.738,289.452 97.572,290.733 C93.145,291.808 90.388,290.423 90.388,290.423 L90.207,287.432 L90.207,287.432 Z" id="路径" fill="#2B0849" fill-rule="nonzero"></path>
            <path d="M98.429,271.856 L101.925,271.856 C101.925,271.856 101.808,279.43 107.052,281.527 C101.808,282.227 97.38,278.925 98.429,271.856" id="路径" fill="#A4AABA" fill-rule="nonzero"></path>
            <path d="M44.425,271.645 C44.425,271.645 42.217,279.419 39.723,284.544 C37.839,288.418 35.295,292.398 45.452,292.398 C52.422,292.398 54.837,291.895 53.234,285.481 C51.63,279.066 53.513,271.645 53.513,271.645 L44.425,271.645 Z" id="路径" fill="#CBD1D1" fill-rule="nonzero"></path>
            <path d="M38.066,289.876 C38.066,289.876 40.264,291.101 45.02,291.101 C51.396,291.101 53.666,289.371 53.666,289.371 C53.666,289.371 54.296,290.539 53.017,291.641 C51.977,292.538 49.247,293.309 45.272,293.262 C40.925,293.212 39.157,292.669 38.21,292.038 C37.346,291.461 37.49,290.381 38.066,289.876" id="路径" fill="#2B0849" fill-rule="nonzero"></path>
            <path d="M45.344,273.64 C45.344,273.64 45.379,275.232 45.015,276.71 C44.65,278.2 43.885,279.965 43.831,281.05 C43.77,282.256 48.586,282.707 49.234,281.086 C49.884,279.464 50.591,274.349 51.24,273.484 C51.888,272.619 46.1,271.262 45.344,273.64" id="路径" fill="#A4AABA" fill-rule="nonzero"></path>
            <path d="M89.476,277.169 L103.375,277.264 C103.375,277.264 104.724,220.621 105.3,210.355 C105.876,200.088 109.223,165.303 106.342,144.77 L93.305,144.101 L69.568,144.911 C69.568,144.911 69.116,149.031 68.325,155.276 C68.26,155.791 67.617,156.15 67.548,156.693 C67.47,157.301 67.987,158.1 67.88,158.737 C65.425,173.364 62.083,191.473 59.624,205.574 C59.503,206.267 58.342,206.622 58.109,208.37 C58.067,208.684 58.329,209.954 58.225,210.235 C51.085,229.708 46.023,262.836 42.565,277.425 L57.741,277.41 C57.741,277.41 60.023,267.265 61.926,258.539 C64.848,245.15 85.938,170.219 85.938,170.219 L89.071,169.265 L88.913,217.833 C88.913,217.833 88.68,219.115 89.263,219.931 C89.846,220.746 88.682,221.098 88.855,222.262 L89.263,224.126 C89.263,224.126 88.797,231.584 88.331,236.478 C87.864,241.373 89.476,277.168 89.476,277.168" id="路径" fill="#7BB2F9" fill-rule="nonzero"></path>
            <path d="M64.57,218.48 C65.767,218.579 68.765,216.383 71.795,213.353 M96.024,222.133 C96.024,222.133 98.905,220.981 102.364,218.099" id="形状" stroke="#648BD8" stroke-width="1.085" stroke-linecap="round" stroke-linejoin="round"></path>
            <path d="M96.973,218.972 C96.973,218.972 99.855,217.819 103.313,214.938" id="路径" stroke="#648BD8" stroke-width="1.032" stroke-linecap="round" stroke-linejoin="round"></path>
            <path d="M63.172,221.743 C63.172,221.743 65.896,221.129 69.931,218.247 M74.903,145.765 C74.622,148.991 75.213,154.621 70.397,155.243 M93.182,143.943 C93.182,143.943 93.297,158.5 91.838,159.593 C89.533,161.323 88.731,161.613 88.731,161.613 M89.197,144.522 C89.197,144.522 89.466,157.666 88.187,169.61 M83.525,170.309 C83.525,170.309 90.335,169.258 92.641,169.258 M46.026,269.644 L45.134,274.182 M46.937,262.888 L46.122,267.045 M62.725,202.102 C62.395,203.72 62.623,204.006 62.276,205.54 C62.276,205.54 59.52,207.443 59.986,209.463 C60.452,211.483 59.676,212.887 55.481,226.715 C53.719,232.522 51.248,245.637 49.316,254.993 C49.286,255.137 48.795,257.639 48.176,260.793 M64.158,193.735 C63.863,195.393 63.558,197.045 63.241,198.673 M71.33,146.386 L70.086,157.263 C70.086,157.263 68.946,157.418 69.567,159.593 C69.684,160.992 66.789,175.983 64.185,191.208 M44.242,273.326 L58.07,273.326" id="形状" stroke="#648BD8" stroke-width="1.085" stroke-linecap="round" stroke-linejoin="round"></path>
            <path d="M106.18,141.716 C103.152,141.227 87.355,138.972 69.961,141.916 C69.650786,141.969576 69.4288374,142.245512 69.443,142.56 C69.506,143.867 69.487,144.903 69.458,145.555 C69.4498426,145.740605 69.5257529,145.920005 69.6646524,146.043385 C69.803552,146.166765 69.9906523,146.220989 70.174,146.191 C73.477,145.657 87.211,143.779 105.838,145.925 C106.185,145.965 106.498,145.711 106.53,145.365 C106.654,144.018 106.69,142.94 106.700109,142.336 C106.705746,142.0285 106.483804,141.763877 106.18,141.716" id="路径" fill="#192064" fill-rule="nonzero"></path>
            <path d="M96.398,144.863 L96.4010133,139.761 C96.4035243,139.306837 96.045801,138.932311 95.592,138.914 C92.8793638,138.812498 90.1639693,138.807828 87.451,138.9 C86.9944745,138.916121 86.6323277,139.290192 86.631,139.747 L86.628,144.844 C86.628,145.32 87.016,145.701 87.492,145.689 C89.97,145.625 92.658,145.622 95.522,145.706 C95.7508496,145.713564 95.9730319,145.62826 96.1380192,145.469488 C96.3030065,145.310716 96.3967749,145.091971 96.398,144.863" id="路径" fill="#FFFFFF" fill-rule="nonzero"></path>
            <path d="M95.239,143.895 L95.2410226,140.7 C95.2439407,140.338862 94.9589162,140.040983 94.598,140.028 C92.698,139.967 90.657,139.955 88.504,140.018 C88.1405948,140.029309 87.85144,140.326422 87.85,140.69 L87.848,143.882 C87.848,144.258 88.153,144.559 88.528,144.551 C90.387,144.509 92.402,144.508 94.548,144.563 C94.924,144.573 95.238,144.272 95.239,143.895" id="路径" fill="#192064" fill-rule="nonzero"></path>
            <path d="M90.102,273.121 L102.921,273.121 M91.216,269.36 C91.222,272.879 91.144,274.91 91.216,275.652 M90.923,263.073 C90.914,264.672 90.907,265.631 90.907,267.578 M90.44,170.003 L91.372,216.383 C91.372,216.383 92.072,218.014 91.139,219.179 C90.207,220.345 93.703,219.879 92.071,221.509 C90.441,223.142 93.004,222.675 92.071,225.006 C91.453,226.552 91.04,246.927 90.933,261.519" id="形状" stroke="#648BD8" stroke-width="1.085" stroke-linecap="round" stroke-linejoin="round"></path>
            <path d="M73.736,98.264 L75.95,102.576 C75.95,102.576 78.048,103.392 77.815,105.256 L78.631,107.47 M64.297,116.21 C64.53,115.278 66.473,109.063 76.882,105.722 M77.598,89.641 C77.598,89.641 85.289,95.778 94.145,92.361" id="形状" stroke="#E4EBF7" stroke-width="1.085" stroke-linecap="round" stroke-linejoin="round"></path>
            <path d="M91.974,86.553 C91.974,86.553 97.45,85.737 99.548,82.008 C100.845,81.663 100.268,84.22 99.218,85.679 C98.518,86.65 98.208,87.233 98.208,87.233 C98.208,87.233 98.402,87.543 98.363,88.049 C98.31,88.746 98.188,88.702 98.091,89.097 C98.01,89.432 98.199,89.754 98.091,90.146 C98.045,90.316 97.893,90.646 97.709,91.024 C97.589,91.273 97.637,91.711 97.509,91.972 C97.278,92.441 95.947,93.842 94.887,94.827 C91.061,98.381 89.869,96.471 88.886,94.419 C87.992,92.554 88.225,89.292 88.012,87.544 C87.662,84.63 85.39,84.514 86.089,83.115 C86.432,82.43 88.959,83.805 89.352,84.863 C90.109,86.903 92.304,86.67 91.974,86.553" id="路径" fill="#FFC6A0" fill-rule="nonzero"></path>
            <path d="M99.8,82.028 C99.335,82.105 99.45,82.3 98.83,83.271 C98.208,84.242 94.013,86.203 92.44,86.495 C89.851,86.975 90.162,84.935 88.186,83.64 C86.496,82.533 84.624,83.002 86.788,85.038 C87.778,85.97 87.72,86.145 88.186,88.243 C88.521,89.749 87.546,91.913 88.886,93.836" id="路径" stroke="#DB836E" stroke-width="0.774" stroke-linecap="round" stroke-linejoin="round"></path>
            <path d="M79.543,108.272 C77.443,111.198 75.277,114.447 73.986,117.034" id="路径" stroke="#E59788" stroke-width="0.774" stroke-linecap="round" stroke-linejoin="round"></path>
            <path d="M87.72,124.367 C87.72,124.367 85.622,122.425 82.593,121.648 C79.563,120.871 79.019,121.493 77.077,121.726 C75.135,121.959 73.192,120.794 73.425,122.426 C73.658,124.056 78.475,123.436 78.631,124.523 C78.786,125.61 72.261,127.319 70.318,126.698 C69.541,127.475 70.784,128.562 72.338,128.873 C72.571,130.427 74.591,130.427 74.591,130.427 C74.591,130.427 75.29,131.437 77.232,131.515 C79.718,132.835 86.166,130.815 88.186,129.961 C90.206,129.106 87.72,124.367 87.72,124.367" id="路径" fill="#FFC6A0" fill-rule="nonzero"></path>
            <path d="M73.425,122.425 C73.425,122.425 74.085,123.552 76.592,123.843 C78.907,124.113 79.155,124.426 79.155,124.426 C79.155,124.426 76.61,127.32 70.085,126.698 M72.416,128.873 C72.416,128.873 76.242,128.97 77.349,128.155 M74.98,130.349 C74.98,130.349 76.941,130.485 78.34,129.844 M77.232,131.515 C77.232,131.515 78.98,131.534 80.146,131.01 M73.328,121.92 C73.328,121.92 72.733,120.888 74.59,121.493 C76.261,122.037 77.423,121.548 79.718,121.648 C81.107,121.709 82.785,121.351 83.7,121.798 C85.306,122.582 87.332,123.979 87.332,123.979 C87.332,123.979 97.858,125.183 106.365,122.852 M78.864,107.703 C78.864,107.703 70.474,110.461 65.696,119.823" id="形状" stroke="#E59788" stroke-width="0.774" stroke-linecap="round" stroke-linejoin="round"></path>
            <path d="M109.278,112.132 C109.278,112.132 112.658,108.519 116.853,107.47" id="路径" stroke="#E4EBF7" stroke-width="1.085" stroke-linecap="round" stroke-linejoin="round"></path>
            <path d="M107.375,122.605 C107.375,122.605 117.072,119.86 118.82,121.725" id="路径" stroke="#E59788" stroke-width="0.774" stroke-linecap="round" stroke-linejoin="round"></path>
            <path d="M194.605,83.255 L198.576,79.369 M187.166,90.532 L190.902,86.877 M191.752,83.806 L187.29,79.246 M198.453,90.656 L194.32,86.431 M129.256,162.673 L132.974,158.955 M122.291,169.638 L125.789,166.14 M126.561,163.225 L122.291,158.955 M132.975,169.638 L129.02,165.683" id="形状" stroke="#BFCDDD" stroke-width="2" stroke-linecap="round" stroke-linejoin="round"></path>
            <path d="M190.156,211.378 L188.552,211.378 C186.339521,211.37141 184.54759,209.579479 184.541,207.367 L184.541,175.279 C184.548135,173.0673 186.3393,171.276135 188.551,171.269 L190.156,171.269 C192.36809,171.275587 194.159862,173.066912 194.167,175.279 L194.167,207.367 C194.159865,209.5787 192.3687,211.369865 190.157,211.377" id="路径" fill="#A3B4C6" fill-rule="nonzero"></path>
            <path d="M237.824,212.576 C237.824,215.234147 235.669147,217.389 233.011,217.389 L146.375,217.389 C143.716853,217.389 141.562,215.234147 141.562,212.576 C141.562,209.917853 143.716853,207.763 146.375,207.763 L233.011,207.763 C235.669147,207.763 237.824,209.917853 237.824,212.576" id="路径" fill="#A3B4C6" fill-rule="nonzero"></path>
            <polygon id="路径" fill="#A3B4C6" fill-rule="nonzero" points="154.098 189.695 224.611 189.695 224.611 105.078 154.098 105.078"></polygon>
            <path d="M224.928,189.695 L153.78,189.695 C152.010388,189.688961 150.577487,188.255614 150.572,186.486 L150.572,167.519 C150.576938,165.748996 152.009999,164.315042 153.78,164.309 L224.928,164.309 C226.698392,164.314493 228.132059,165.748607 228.137,167.519 L228.137,186.486 C228.131507,188.256392 226.697393,189.690059 224.927,189.695 M224.928,130.431 L153.78,130.431 C152.01055,130.42551 150.57749,128.99245 150.572,127.223 L150.572,108.255 C150.577487,106.485386 152.010388,105.052039 153.78,105.046 L224.928,105.046 C226.698392,105.051493 228.132059,106.485607 228.137,108.256 L228.137,127.223 C228.131504,128.993228 226.697231,130.426608 224.927,130.431" id="形状" fill="#BFCDDD" fill-rule="nonzero"></path>
            <path d="M159.563,120.145 C158.691547,120.162765 157.878579,119.708014 157.437643,118.956135 C156.996707,118.204256 156.996707,117.272744 157.437643,116.520865 C157.878579,115.768986 158.691547,115.314235 159.563,115.332 C160.872957,115.358705 161.920941,116.42827 161.920941,117.7385 C161.920941,119.04873 160.872957,120.118295 159.563,120.145 M166.98,120.145 C166.108547,120.162765 165.295579,119.708014 164.854643,118.956135 C164.413707,118.204256 164.413707,117.272744 164.854643,116.520865 C165.295579,115.768986 166.108547,115.314235 166.98,115.332 C168.289957,115.358705 169.337941,116.42827 169.337941,117.7385 C169.337941,119.04873 168.289957,120.118295 166.98,120.145 M174.397,120.145 C173.525547,120.162765 172.712579,119.708014 172.271643,118.956135 C171.830707,118.204256 171.830707,117.272744 172.271643,116.520865 C172.712579,115.768986 173.525547,115.314235 174.397,115.332 C175.706957,115.358705 176.754941,116.42827 176.754941,117.7385 C176.754941,119.04873 175.706957,120.118295 174.397,120.145 M222.539,120.145 L200.078,120.145 C199.635068,120.145 199.276,119.785932 199.276,119.343 L199.276,116.135 C199.276,115.692 199.635,115.332 200.078,115.332 L222.538,115.332 C222.982,115.332 223.341,115.692 223.341,116.135 L223.341,119.343 C223.341,119.786 222.981,120.145 222.539,120.145" id="形状" fill="#FFFFFF" fill-rule="nonzero"></path>
            <path d="M224.928,160.063 L153.78,160.063 C152.010161,160.057507 150.576941,158.623841 150.572,156.854 L150.572,137.887 C150.577487,136.117386 152.010388,134.684039 153.78,134.678 L224.928,134.678 C226.698003,134.68349 228.13151,136.116997 228.137,137.887 L228.137,156.854 C228.132053,158.624619 226.69762,160.058605 224.927,160.063" id="路径" fill="#BFCDDD" fill-rule="nonzero"></path>
            <path d="M173.455,130.431 L222.756,130.431 M164.984,130.431 L171.073,130.431 M155.952,130.431 L162.702,130.431 M173.837,160.212 L223.137,160.212 M165.365,160.212 L171.454,160.212 M155.57,160.212 L162.321,160.212" id="形状" stroke="#7C90A5" stroke-width="1.124" stroke-linecap="round" stroke-linejoin="round"></path>
            <path d="M159.563,150.637 C158.233651,150.637 157.156,149.559349 157.156,148.23 C157.156,146.900651 158.233651,145.823 159.563,145.823 C160.892349,145.823 161.97,146.900651 161.97,148.23 C161.97,149.559349 160.892349,150.637 159.563,150.637 M166.98,150.637 C165.650651,150.637 164.573,149.559349 164.573,148.23 C164.573,146.900651 165.650651,145.823 166.98,145.823 C168.309349,145.823 169.387,146.900651 169.387,148.23 C169.387,149.559349 168.309349,150.637 166.98,150.637 M174.397,150.637 C173.537062,150.636821 172.742541,150.177885 172.312727,149.433067 C171.882912,148.688249 171.883103,147.770706 172.313227,147.026067 C172.743351,146.281428 173.538062,145.822821 174.398,145.823 C175.727349,145.823 176.805,146.900651 176.805,148.23 C176.805,149.559349 175.727349,150.637 174.398,150.637 M222.539,150.637 L200.078,150.637 C199.635068,150.637 199.276,150.277932 199.276,149.835 L199.276,146.626 C199.276,146.183 199.635,145.824 200.078,145.824 L222.538,145.824 C222.982,145.824 223.341,146.184 223.341,146.626 L223.341,149.835 C223.341,150.278 222.981,150.637 222.539,150.637 M159.563,179.586 C158.691547,179.603765 157.878579,179.149014 157.437643,178.397135 C156.996707,177.645256 156.996707,176.713744 157.437643,175.961865 C157.878579,175.209986 158.691547,174.755235 159.563,174.773 C160.872957,174.799705 161.920941,175.86927 161.920941,177.1795 C161.920941,178.48973 160.872957,179.559295 159.563,179.586 M166.98,179.586 C166.108547,179.603765 165.295579,179.149014 164.854643,178.397135 C164.413707,177.645256 164.413707,176.713744 164.854643,175.961865 C165.295579,175.209986 166.108547,174.755235 166.98,174.773 C168.289957,174.799705 169.337941,175.86927 169.337941,177.1795 C169.337941,178.48973 168.289957,179.559295 166.98,179.586 M174.397,179.586 C173.525547,179.603765 172.712579,179.149014 172.271643,178.397135 C171.830707,177.645256 171.830707,176.713744 172.271643,175.961865 C172.712579,175.209986 173.525547,174.755235 174.397,174.773 C175.706957,174.799705 176.754941,175.86927 176.754941,177.1795 C176.754941,178.48973 175.706957,179.559295 174.397,179.586 M222.539,179.586 L200.078,179.586 C199.635068,179.586 199.276,179.226932 199.276,178.784 L199.276,175.575 C199.276,175.132 199.635,174.773 200.078,174.773 L222.538,174.773 C222.982,174.773 223.341,175.133 223.341,175.575 L223.341,178.784 C223.341,179.227 222.981,179.586 222.539,179.586" id="形状" fill="#FFFFFF" fill-rule="nonzero"></path>
            <path d="M203.04,220.707 L175.668,220.707 C174.34041,220.703153 173.265296,219.627592 173.262,218.3 L173.262,206.852 C173.265842,205.524635 174.340637,204.449393 175.668,204.445 L203.04,204.445 C204.367754,204.448845 205.443155,205.524246 205.447,206.852 L205.447,218.299 C205.443702,219.626981 204.367981,220.702702 203.04,220.706" id="路径" fill="#BFCDDD" fill-rule="nonzero"></path>
            <path d="M177.259,206.816 L177.259,218.336 M201.05,206.816 L201.05,218.336" id="形状" stroke="#A3B4C6" stroke-width="1.124" stroke-linecap="round" stroke-linejoin="round"></path>
            <path d="M162.873,267.493 C157.669373,267.493 153.451,263.274627 153.451,258.071 L153.451,243.251 C153.504221,238.084964 157.70719,233.925071 162.8735,233.925071 C168.03981,233.925071 172.242779,238.084964 172.296,243.251 L172.296,258.071 C172.295448,263.274789 168.076789,267.493 162.873,267.493" id="路径" fill="#5BA02E" fill-rule="nonzero"></path>
            <path d="M171.22,267.429 C168.720957,267.429 166.324283,266.436191 164.557286,264.669007 C162.79029,262.901823 161.797735,260.505043 161.798,258.006 L161.798,254.568 C161.851221,249.401964 166.05419,245.242071 171.2205,245.242071 C176.38681,245.242071 180.589779,249.401964 180.643,254.568 L180.643,258.006 C180.643,263.209789 176.424789,267.428448 171.221,267.429" id="路径" fill="#92C110" fill-rule="nonzero"></path>
            <path d="M181.31,293.265 L153.598,293.265 C152.746747,293.265 151.930374,292.926773 151.328541,292.324752 C150.726708,291.722732 150.389,290.906253 150.389,290.055 L150.389,269.389 C150.389,268.537747 150.726708,267.721268 151.328541,267.119248 C151.930374,266.517227 152.746747,266.179 153.598,266.179 L181.309,266.179 C182.160253,266.179 182.976626,266.517227 183.578459,267.119248 C184.180292,267.721268 184.518,268.537747 184.518,269.389 L184.518,290.057 C184.518,291.829282 183.081282,293.266 181.309,293.266" id="路径" fill="#F2D7AD" fill-rule="nonzero"></path>
        </g>
    </g>
</svg>